<?xml version="1.0" standalone="no"?>
<!DOCTYPE svg PUBLIC "-//W3C//DTD SVG 20010904//EN"
 "http://www.w3.org/TR/2001/REC-SVG-20010904/DTD/svg10.dtd">
<svg version="1.0" xmlns="http://www.w3.org/2000/svg"
 width="300.000000pt" height="300.000000pt" viewBox="0 0 300.000000 300.000000"
 preserveAspectRatio="xMidYMid meet">

<g transform="translate(0.000000,300.000000) scale(0.100000,-0.100000)"
fill="#000000" stroke="none">
<path d="M732 2896 c-6 -15 -23 -27 -41 -31 -30 -6 -30 -7 -14 -32 10 -15 16
-39 15 -54 -3 -27 -2 -27 26 -17 25 10 35 8 65 -9 44 -26 53 -19 27 22 -20 32
-20 32 0 50 27 24 25 35 -5 35 -17 0 -29 9 -40 30 -9 17 -17 30 -19 30 -1 0
-8 -11 -14 -24z"/>
<path d="M858 2684 c-8 -7 50 -94 64 -94 17 0 7 26 -25 63 -18 21 -35 35 -39
31z"/>
<path d="M960 2534 c0 -3 14 -26 32 -50 20 -28 35 -41 41 -35 6 6 -2 25 -22
50 -29 37 -51 52 -51 35z"/>
<path d="M1072 2392 c-8 -2 -2 -18 20 -45 17 -23 33 -44 35 -46 2 -3 7 0 12 5
12 12 -50 92 -67 86z"/>
<path d="M226 2325 c-13 -10 -25 -11 -43 -4 -35 13 -35 12 -28 -20 4 -20 1
-38 -10 -55 -17 -26 -17 -26 13 -26 21 0 35 -8 48 -27 l17 -28 10 28 9 28 35
-27 c41 -31 56 -24 22 12 -17 18 -20 27 -11 33 9 6 7 12 -8 26 -11 10 -20 31
-20 47 0 31 -6 34 -34 13z"/>
<path d="M1170 2244 c0 -15 69 -93 75 -84 8 13 -45 89 -62 90 -7 0 -13 -3 -13
-6z"/>
<path d="M370 2127 c0 -17 84 -81 88 -67 4 11 -65 79 -80 80 -5 0 -8 -6 -8
-13z"/>
<path d="M1286 2101 c-4 -6 9 -32 28 -57 41 -53 42 -60 20 -85 -14 -16 -14
-18 5 -24 12 -3 26 -16 32 -27 9 -17 13 -18 20 -7 6 10 11 5 20 -19 8 -23 15
-30 22 -23 7 7 7 18 -1 36 -15 33 -15 35 3 35 19 0 19 14 1 29 -8 6 -11 22 -8
37 4 24 3 25 -16 15 -27 -14 -44 -7 -65 27 -33 53 -54 75 -61 63z"/>
<path d="M512 2008 c7 -19 77 -72 85 -64 5 5 -10 23 -31 42 -40 35 -61 43 -54
22z"/>
<path d="M646 1902 c-3 -5 15 -25 39 -45 25 -21 46 -33 50 -27 3 6 -8 23 -26
38 -43 36 -57 44 -63 34z"/>
<path d="M2541 1832 c-6 -12 -20 -24 -32 -27 -15 -5 -17 -10 -9 -20 9 -10 2
-15 -30 -20 -26 -4 -40 -12 -40 -22 0 -9 6 -12 18 -9 60 18 72 18 72 2 0 -14
4 -15 20 -6 14 8 26 7 41 -1 20 -10 21 -9 17 15 -3 15 0 31 8 37 20 16 17 29
-5 29 -11 0 -26 9 -35 21 l-14 21 -11 -20z"/>
<path d="M1458 1794 c-10 -9 35 -104 49 -104 10 0 10 8 -3 38 -9 20 -18 45
-21 55 -5 17 -15 22 -25 11z"/>
<path d="M787 1784 c-7 -7 69 -74 84 -74 19 0 7 20 -30 49 -42 33 -44 34 -54
25z"/>
<path d="M2298 1728 c-32 -7 -48 -15 -48 -25 0 -10 6 -13 16 -9 9 3 33 9 55
12 23 4 39 12 39 20 0 8 -3 13 -7 13 -5 -1 -29 -6 -55 -11z"/>
<path d="M2119 1687 c-25 -7 -44 -17 -42 -23 5 -14 105 7 111 24 4 14 -8 14
-69 -1z"/>
<path d="M926 1671 c-3 -5 14 -25 38 -45 28 -23 47 -32 51 -25 4 5 -1 17 -11
25 -57 44 -73 53 -78 45z"/>
<path d="M1943 1647 c-24 -5 -43 -15 -43 -22 0 -17 102 5 108 23 4 14 -6 14
-65 -1z"/>
<path d="M1533 1600 c8 -21 8 -36 1 -48 -14 -24 29 -68 47 -46 6 8 18 14 25
14 7 0 11 6 8 14 -3 8 4 16 20 20 32 8 34 28 4 26 -52 -5 -69 1 -80 25 -17 38
-39 33 -25 -5z"/>
<path d="M1763 1607 c-48 -11 -58 -28 -15 -26 41 1 75 13 80 27 4 14 -6 14
-65 -1z"/>
<path d="M1064 1559 c-6 -10 29 -46 68 -69 36 -21 25 9 -17 43 -28 24 -46 33
-51 26z"/>
<path d="M1597 1463 c-4 -3 0 -22 9 -41 8 -20 11 -38 7 -41 -5 -3 -8 -21 -8
-38 0 -25 4 -32 15 -28 21 7 35 -6 36 -35 1 -14 5 -47 9 -75 6 -43 4 -53 -14
-72 l-20 -21 24 -16 c14 -9 25 -24 25 -33 0 -15 1 -15 18 0 10 10 28 17 40 17
23 0 29 14 11 26 -6 3 -8 17 -5 30 5 20 3 24 -16 24 -28 0 -58 19 -42 26 8 3
7 23 -4 69 -14 57 -14 66 -1 82 14 16 13 20 -7 39 -13 12 -25 20 -27 17 -3 -2
-10 12 -17 31 -12 37 -23 50 -33 39z"/>
<path d="M1206 1443 c-3 -3 10 -24 30 -45 34 -38 35 -41 20 -63 -21 -32 -20
-35 11 -35 15 0 37 -9 49 -21 l22 -21 7 21 c8 28 13 27 64 -11 34 -25 42 -36
38 -55 -3 -18 -1 -23 10 -19 8 3 23 1 34 -4 13 -8 19 -7 19 0 0 6 18 1 39 -10
24 -12 42 -16 46 -10 3 5 -10 18 -30 27 -19 9 -34 22 -32 27 4 15 -41 57 -48
45 -10 -15 -34 -10 -54 10 -10 10 -27 24 -37 30 -17 9 -17 12 -4 21 13 9 12
13 -7 27 -15 10 -23 26 -23 44 0 32 -11 37 -30 14 -18 -21 -40 -19 -81 10 -20
13 -39 21 -43 18z"/>
<path d="M1770 1024 c0 -16 63 -94 71 -88 6 4 5 14 -4 27 -8 12 -20 32 -28 45
-12 20 -39 31 -39 16z"/>
<path d="M1884 855 c9 -14 23 -36 32 -51 11 -16 20 -22 27 -15 12 12 -41 90
-62 91 -10 0 -10 -5 3 -25z"/>
<path d="M1995 749 c-4 -5 -15 -9 -27 -9 -14 0 -18 -5 -14 -16 3 -9 6 -24 6
-34 0 -11 7 -19 18 -19 19 0 38 -4 65 -16 27 -12 34 3 8 21 -14 10 -19 20 -13
27 5 8 0 20 -15 34 -12 12 -25 18 -28 12z"/>
<path d="M2120 611 c0 -5 15 -20 33 -33 47 -36 55 -39 62 -29 3 5 -15 24 -39
40 -47 33 -56 36 -56 22z"/>
<path d="M2270 508 c0 -19 88 -80 93 -65 2 6 -13 23 -32 37 -55 40 -61 43 -61
28z"/>
<path d="M2417 403 c-4 -3 8 -17 26 -30 48 -37 65 -44 72 -34 3 6 -15 24 -39
40 -48 34 -50 34 -59 24z"/>
<path d="M2566 301 c-4 -5 13 -23 36 -40 44 -32 58 -38 58 -21 0 14 -88 71
-94 61z"/>
<path d="M2740 211 c0 -6 -7 -11 -16 -11 -11 0 -14 -5 -10 -16 4 -9 2 -22 -4
-29 -8 -10 -6 -15 9 -20 12 -3 24 -17 27 -31 6 -23 8 -24 23 -9 10 8 27 15 39
15 24 0 27 7 13 29 -6 9 -5 24 0 39 8 22 7 24 -12 19 -12 -3 -32 1 -45 10 -15
9 -24 11 -24 4z"/>
</g>
</svg>
